<?xml version="1.0" standalone="no"?>
<!DOCTYPE svg PUBLIC "-//W3C//DTD SVG 20010904//EN"
 "http://www.w3.org/TR/2001/REC-SVG-20010904/DTD/svg10.dtd">
<svg version="1.0" xmlns="http://www.w3.org/2000/svg"
 width="40.000000pt" height="40.000000pt" viewBox="0 0 40.000000 40.000000"
 preserveAspectRatio="xMidYMid meet">

<g transform="translate(0.000000,40.000000) scale(0.100000,-0.100000)"
fill="#000000" stroke="none">
<path d="M121 254 c-18 -15 -40 -24 -53 -22 -21 3 -24 -3 -32 -53 -13 -81 2
-111 19 -39 11 46 21 62 61 98 52 45 56 59 5 16z"/>
<path d="M183 161 c-10 -16 -9 -20 3 -25 12 -4 14 -14 9 -38 l-6 -33 16 28
c28 49 6 114 -22 68z"/>
</g>
</svg>
