<?xml version="1.0" encoding="UTF-8"?>
<svg viewBox="0 0 185 185" xmlns="http://www.w3.org/2000/svg">
 <g transform="translate(0 -867.36)">
  <path d="m119.23 975.03" fill="none" stroke="#1f1a17" stroke-linecap="round" stroke-linejoin="round" stroke-miterlimit="10" stroke-width=".3"/>
  <path d="m93.42857,872.43362h4.5l4.5.3 4.5.6 4.2.9 4.5.9 4.2,1.2 3.9,1.5 4.2,1.5 7.8,3.6 3.6,2.4 3.6,2.1 3.6,2.4 3.3,2.7 3,3 3.3,2.7 2.7,3.3 3,3 2.7,3.3 2.4,3.6 2.1,3.6 2.4,3.6 3.6,7.8 1.5,4.2 1.5,3.9 1.2,4.2 .9,4.5 .9,4.2 .6,4.5 .3,4.5v9l-.3,4.5-.6,4.5-.9,4.2-.9,4.5-1.2,4.2-1.5,3.9-1.5,4.2-1.8,3.89998-1.8,3.9-2.4,3.6-2.1,3.6-2.4,3.6-2.7,3.3-3,3-2.7,3.3-3.3,2.7-3,3-3.3,2.7-3.6,2.4-3.6,2.1-3.6,2.4-3.9,1.8-3.9,1.8-4.2,1.5-3.9,1.5-4.2,1.2-4.5.9-4.2.9-4.5.6-4.5.3h-9l-4.5-.3-4.5-.6-4.2-.9-4.5-.9-4.2-1.2-3.9-1.5-4.2-1.5-3.9-1.8-3.9-1.8-3.6-2.4-3.6-2.1-3.6-2.4-3.3-2.7-3-3-3.3-2.7-2.7-3.3-3-3-2.7-3.3-2.4-3.6-2.1-3.6-2.4-3.6-1.8-3.9-1.8-3.89998-1.5-4.2-1.5-3.9-1.2-4.2-.9-4.5-.9-4.2-.6-4.5-.3-4.5v-9l.3-4.5 .6-4.5 .9-4.2 .9-4.5 1.2-4.2 1.5-3.9 1.5-4.2 1.8-3.9 1.8-3.9 2.4-3.6 2.1-3.6 2.4-3.6 2.7-3.3 3-3 2.7-3.3 3.3-2.7 3-3 3.3-2.7 3.6-2.4 3.6-2.1 3.6-2.4 3.9-1.8 3.9-1.8 4.2-1.5 3.9-1.5 4.2-1.2 4.5-.9 4.2-.9 4.5-.6 4.5-.3h4.5" fill="none" stroke="#121415" stroke-linecap="round" stroke-linejoin="round" stroke-miterlimit="10" stroke-width=".6"/>
  <path d="m93.42857,876.63362 4.2.3 4.5.3 4.2.6 3.9.6 4.2.9 3.9,1.2 3.9,1.2 3.9,1.8 3.6,1.5 3.9,1.8 3.3,2.1 3.6,2.1 3.3,2.4 3,2.7 3,2.4 3,3 2.7,2.7 2.7,3.3 2.7,3 2.4,3.3 2.1,3.6 2.1,3.3 1.8,3.6 4.5,11.7 1.2,3.9 .9,3.9 .6,4.2 .6,4.2 .3,4.5 .3,4.2-.3,4.2-.3,4.5-.6,4.2-.6,3.9-.9,4.2-1.2,3.9-3,7.8-1.5,3.6-1.8,3.89998-2.1,3.3-2.1,3.6-2.4,3.3-2.7,3-2.7,3-2.7,3-3,2.7-3,2.7-3,2.7-3.3,2.4-3.6,2.1-3.3,2.1-3.9,1.8-3.6,1.5-7.8,3-3.9,1.2-4.2.9-3.9.6-4.2.6-4.5.3-4.2.3-4.2-.3-4.5-.3-4.2-.6-3.9-.6-4.2-.9-3.9-1.2-7.8-3-3.6-1.5-3.9-1.8-3.3-2.1-3.6-2.1-3.3-2.4-3-2.7-3-2.7-3-2.7-2.7-3-2.7-3-2.7-3-2.4-3.3-2.1-3.6-2.1-3.3-1.8-3.89998-1.5-3.6-3-7.8-1.2-3.9-.9-4.2-.6-3.9-.6-4.2-.3-4.5-.3-4.2 .3-4.2 .3-4.5 .6-4.2 .6-4.2 .9-3.9 1.2-3.9 4.5-11.7 1.8-3.6 2.1-3.3 2.1-3.6 2.4-3.3 2.7-3 2.7-3.3 2.7-2.7 3-3 3-2.4 3-2.7 3.3-2.4 3.6-2.1 3.3-2.1 3.9-1.8 3.6-1.5 3.9-1.8 3.9-1.2 3.9-1.2 4.2-.9 3.9-.6 4.2-.6 4.5-.3 4.2-.3zm51.6,125.99998-93.3-93.29998 .6-.6 .6-.3 .6-.6 .6-.3 .6-.3 .6-.6 .3-.3 .6-.6 1.2-.6 .9-.6 1.2-.6 .9-.6 1.2-.6 .9-.6 1.2-.6 .9-.6 2.1-.6 1.8-.9 1.8-.6 1.8-.9 2.1-.6 1.8-.6 2.1-.3 1.8-.6 6.6-.9 1.5-.3h10.2l1.2.3h1.2l1.2.3h1.2l1.2.3h1.2l1.5.3 1.2.3 1.2.3 .9.3 2.4.6 1.2.3 1.2.6 1.2.3 1.8.9 1.8.6 1.8.9 3.6,1.8 1.8.9 1.8,1.2 1.8.9 .9.9 1.8,1.2 .9.9 .9.6 1.2.9 .9.6 .9.9 1.5,1.5 1.2,1.5 1.5,1.2 1.2,1.5 1.2,1.5 1.5,1.5 1.2,1.8 1.2,1.5 .6,1.2 .6.9 .6,1.2 .6.9 .6.9 1.2,2.4 .6.9 .6,1.8 .9,2.1 .6,1.8 .9,1.8 .6,2.1 .6,1.8 .3,2.1 .6,1.8 .3,1.5v1.2l.3,1.2v1.2l.3,1.2v1.2l.3,1.2v10.2l-.3,1.5v1.2l-.3,1.2v1.2l-.3,1.2-.3,1.2-.3,1.2-.3,1.2-.3,1.2-.3,1.2-.3,1.2-.3,1.2-.3,1.2-.6.9-.3,1.2-.3,1.2-.6,1.2-3.6,7.2-.9,1.5-1.2,1.8-1.2,1.79998-1.2,1.5v.3l-.6.6v.3h-.3l-.3.3v.3l-.3.3zm-103.2-83.39998 93.3,93.29998-.9.6-.9.9-.9.6-.9.6-.9.6-2.7,1.8-1.2.6-1.2.6-.9.6-1.2.6-.9.6-1.2.6-.9.3-1.2.6-2.1.9-1.8.6-1.8.6-2.1.6-1.8.6-2.1.3-2.1.6-1.8.3h-1.5l-1.2.3h-1.2l-1.2.3h-10.2l-1.2-.3h-1.2l-1.2-.3h-1.5l-2.4-.6h-1.2l-1.2-.3-1.2-.3-2.4-.6-1.2-.3-1.8-.9-1.8-.6-2.1-.9-1.8-.6-3.6-1.8-1.8-.9-1.8-1.2-1.8-1.2-1.2-.6-.9-.9-.9-.6-.9-.6-.9-.9-1.2-.6-1.5-1.5-1.5-1.2-1.2-1.5-1.5-1.5-1.2-1.2-1.5-1.5-1.2-1.5-1.2-1.8-.9-.9-.6-.9-.6-1.19998-.6-.9-.9-.9-.6-1.2-.6-.9-.6-1.2-.9-1.8-.9-1.8-.6-1.8-.9-1.8-.6-1.8-.6-2.1-.9-1.8-.3-2.1-.3-1.2-.3-1.2-.3-1.2-.3-1.2-.3-1.2v-1.2l-.3-1.2v-1.2l-.3-1.5v-10.2l.3-1.2v-1.2l.3-1.2v-1.2l.3-1.2v-1.2l.3-1.5 .3-1.2 .3-1.2 .3-1.2 .3-.9 .6-2.4 .6-1.2 .3-1.2 .9-1.8 .6-2.1 1.8-3.6 .9-1.5 .9-1.8 1.2-1.8 .9-1.8 .6-.6 .3-.6 .6-.3 .3-.6 .3-.6 .6-.6 .3-.6 .6-.6" fill="#dc2b19" fill-rule="evenodd"/>
  <path d="m92.52857,971.43362 .6-6.3 .3-6.3 .3-6.3 .6-6.6 .6-12.6 .6-6.3 .3-6.3v-1.2l.3-.9 .6-.6 .6-.6 .9-.6 .9-.3 .9-.3h1.8l.9.3 .9.3 .9.6 .6.6 .6.9 .3.9v1.2l-.3,3.6v3.3l-.3,3.6v3.3l-.3,3.6v3.3l-.3,3.6v3.6l.3.3 .6.3 .3.3h.6l.6-.3 .3-.3 .3-.3 2.7-35.1 .3-1.2 .6-.9 .3-.6 .9-.6 .9-.3 .9-.3 .9-.3h1.8l.9.3 .9.3 .6.6 .6.6 .6.9 .3.9v.9l-2.7,37.8v.6l.3.3 .3.3 .6.3h.6l.3-.3 .6-.6v-.6l3.9-30.9 .3-.9 .3-.6 .6-.9 .9-.3 1.5-.9h1.8l2.1.3 1.5.9 .6.6 .3.9 .3.9v.9l-4.8,35.4v.6l.3.3v.3l.6.3h.3l.6-.3h.3l.3-.6 1.8-4.8 .9-2.1 .9-2.4 .9-2.4 .9-2.4 1.2-2.4 .9-2.4 .6-.9 .6-.6 1.2-.3 1.2-.3 .9.3 1.2.6 .9.6 .6.9h.3v.3l.3.3v2.4l-8.1,20.1-.6,1.5-.3,1.5-.6,1.5-.3,1.2-.6,1.5-.3,1.2-.6,1.5-.3,1.2-3.3,13.8-1.5,3.6-1.5,3-1.8,2.7-2.1,2.09998-2.1,2.1-2.4,1.8-2.4,1.5-2.7,1.5h-.9l-.9.3h-.9l-.9.3h-2.1l-.9.3h-.9l-2.7-.3-3-.3-2.4-.6-2.7-1.2-2.7-1.2-2.4-1.5-2.1-2.1-2.4-2.09998-1.8-.3-1.8-.3h-1.8l-1.8-.3-1.5-.3-1.8-.3h-1.8l-2.1-.3h-2.4l-.6.3h-.9l-.6.3-.6.6-.3.3-17.4,15.29998-1.5-1.2 18-15.59998 .6-.3 .9-.6 .6-.3 .9-.3h.9l.9-.3h1.2l1.2.3 12.9,1.5-.9-2.1-1.2-2.1-.9-2.1-1.2-2.4-1.2-2.1-1.2-2.1-1.2-2.1-1.2-2.1h-15l-1.2,2.1-1.2,2.1-1.2,1.5-1.8,1.2-1.5.9-2.1.6-2.1.6h-2.7v-1.5h2.1l2.1-.3 1.5-.3 1.5-.9 1.2-.9 1.5-1.2 .9-1.5 1.2-1.8 .6-1.2 .3-1.2 .3-1.5 .3-1.5 .3-1.8v-4.5l.3-7.5h-20.1v-1.5h22.8l-.3-.3v-.3l-.3-.3-.6-.6v-.3l-.3-.3v-.3l-.6-3-.9-2.7-1.5-2.1-1.5-1.8-2.1-1.2-2.1-.9-2.4-.6-2.4-.3-2.4.3-2.4.9-2.4.9-2.1,1.5-1.5,1.8-1.5,2.1-.3,1.2-.3,1.5-.3,1.2v6l-.6.3-1.2.6-.6.3-.6,1.2v5.4l.6.9 .3.3 .3.6 .6.3h1.5l.6.3 .9,8.7h-10.8l-.6-1.5h9.6l-.6-5.7h-.6l-1.2-.6-.6-.3-.3-.6-.6-.6-.3-.6-.3-.9v-6.3l.3-.3 .3-.6 .3-.6 .6-.6 .6-.3 .9-.6v-5.4l.3-1.5 .3-1.2 .3-1.2 1.5-2.4 1.8-1.8 2.1-1.5 2.4-1.2 2.7-.9 2.7-.3h2.7l2.7.3 2.4.9 2.4,1.5 .9.9 1.2.9 .6,1.2 .9,1.2 .6,1.5 .6,1.5 .3,1.8 .3,1.8v.3l.3.6 .3.3 .3.3h.3l.3.3h.3l.3.3v2.1h-3.3v6.3l-.3,1.2v4.5l-.3,1.2v1.5l-.3,1.2-.3,1.2h13.5l-2.7-4.5-.9-1.8-1.2-1.5-1.2-1.5-1.2-1.5-1.5-1.8-.3-.3-.3-.6v-.3l-.3-.6v-.3l.3-.6 .3-.6 .6-.6 .3-.3 .3-.3 .3-.3 .6-.3h.3l.3-.3 .3-.3 1.5-.3 1.2-.3 1.2.3h1.5l1.2.6 .9.6 1.2.9 .9,1.2 1.2,1.2 1.2,1.5 2.4,3 .9,1.2 1.2,1.5 .9,1.5 1.2,1.5 .3.3h.9l.3-.3 .3-.3v-1.2zm-33,4.5v-.9l-.3-.9-.3-.9-.3-.9-.6-.9-.9-.6-.9-.6h-2.4l-.9.6-.9.6-.6.9-.3.9-.3.9-.3.9v2.1l.3.9 .3,1.2 .3.9 .6.9 .9.6 .9.3 1.2.3 1.2-.3 .9-.3 .9-.6 .6-.9 .3-.9 .3-1.2 .3-.9v-1.2zm-2.1-2.7v-.3h-.3v-.3l-.3-.3-.3-.3h-.3v-.3h-1.8l-1.2.6-.9,1.5-.3,1.5v1.8l.6,1.8 .3.6 .6.6 .6.6h.9l1.2-.3 .6-.6 .6-.9 .6-2.4v-1.2l-.3-1.2-.3-.9" fill="#1f1a17" fill-rule="evenodd"/>
 </g>
</svg>
