<svg xmlns="http://www.w3.org/2000/svg" xmlns:svgjs="http://svgjs.com/svgjs" xmlns:xlink="http://www.w3.org/1999/xlink" width="288" height="288"><svg xmlns="http://www.w3.org/2000/svg" width="288" height="288" viewBox="0 0 3068 2668"><g fill="#482ff7" class="color000 svgShape" transform="matrix(.13333 0 0 -.13333 0 2668)"><path fill="#f3f169" d="M 5,5 H 23005 V 20005 H 5 V 5" class="colorfff svgShape"/><path fill="none" stroke="#46c3db" stroke-miterlimit="10" stroke-width="10" d="M 5,5 H 23005 V 20005 H 5 Z" class="colorStroke231f20 svgStroke"/><path fill="#2d6cdf" d="M9762.05 5850.3C8140.67 6533.1 6999.31 8138.2 6999.31 10005c0 2484.4 2021.22 4505.7 4505.69 4505.7 252.4 0 499.6-21.9 740.7-62l385.2 533.9c-362.4 82-739 126.8-1125.9 126.8-2814.48 0-5104.33-2289.9-5104.33-5104.4 0-2144 1329.32-3982.1 3206.47-4736.9l154.91 582.2M13403 14741.9l-154.9-582.3c1621.3-682.8 2762.6-2287.8 2762.6-4154.6 0-2484.4-2021.2-4505.6-4505.7-4505.6-252.4 0-499.5 21.8-740.7 61.9l-385.2-534c362.5-81.9 739-126.6 1125.9-126.6 2814.5 0 5104.3 2289.8 5104.3 5104.3 0 2143.9-1329.2 3982.1-3206.3 4736.9" class="color231f20 svgShape"/><path fill="#2d6cdf" d="m 14078.5,10502.8 c 177.9,247.8 73.8,450.6 -231.2,450.6 h -1321.9 c -305,0 -482.2,238.9 -393.6,530.8 l 1143.4,3766.6 c 88.7,292 15.6,328.2 -162.4,80.2 L 8931.58,9507.3 c -177.84,-247.9 -73.81,-450.7 231.25,-450.7 h 1321.87 c 305.2,0 482.3,-238.9 393.6,-530.8 L 9734.83,4759.1 c -88.66,-291.9 -15.5,-328 162.44,-80.2 l 4181.23,5823.9" class="color231f20 svgShape"/></g></svg></svg>