<svg xmlns="http://www.w3.org/2000/svg" xmlns:svgjs="http://svgjs.com/svgjs" xmlns:xlink="http://www.w3.org/1999/xlink" width="288" height="288"><rect width="288" height="288" fill="#fbbc05" rx="20" ry="20" transform="translate(30.01 30.01) scale(.7916)"/><svg xmlns="http://www.w3.org/2000/svg" width="288" height="288" transform="translate(77.009 77.013) scale(.4652)" viewBox="0 0 800.253 800.253"><g fill="#482ff7" class="color000 svgShape" transform="matrix(.13333 0 0 -.13333 0 800.253)"><path fill="#2d6cdf" d="M 3340.95,2684.78 1915.18,916.148 3762.89,2893.26 2447.76,2685.78 l 893.19,-1" class="color15182c svgShape"/><path fill="#2d6cdf" d="M2864.29 5323.89l26.91 24.97 160.68-52.42 7.34-27.2-28.77-61.88-194.74 64.16zm265.72-79.37l29.06 16.08 163.28-53.66-4.38-62.06-135.65-267.73-132.98-138.71-115.5 58.66 69.91 127.58 114.89 24.54 89.52 121-28.28 88.81-76.63 24.35zm289.4-179.28l103.9-101.11.68-29.44-137.29-219.36-97.05-103.66-120.23 65.68 179.84 346.4zm191.74-216.26l61.91-64.32 9.66-81.06-92.39-139.22-110.32-55.34-100.93 49.62 200.68 302.29zM2016.28 1950.64L1475.71 297.609 2533.82 2161.99h-617.91l715.6 1834.33-288.26 639.32.51 97.36 297.39 452.24 115.17 38.84 353.25-96.41 18.19-48.94-71.59-87.76-239.19-24.82-127.16 54.21 10.48-116.54-58.27-84.59-95.63-31.04 529.42-838.75-232.61-.05L2565.28 2908.9 2912 3803l277.34 72.64-275.44 696.86 429.16-380.46-107.76 236.1 350.09-.27-76.02-399.25-225.87-167.7-105.55-888.93 268.05 804.44 130.51 192.26 213.93 811.14-167.05 155.93-43.36-4.52 4.83 84.41-153.27 149.93-35.55-8.36 1.69 39.63-27.62 59.88-230.57 76.65-27.73-21.33-6.09 32.47-252.19 83.09-60.26-49.1-43.21-78.75-169.96-55.22-358.83-501.99v-162.5l259.44-560.47-856.33-2051.47h396.09l-4.08-17.47h-.11M3679.32 3307.92c3.3-.24 6.93-.36 10.88-.36 5.73 0 11.07.29 16.03.86 4.94.57 9.56 1.41 13.77 2.53 4.2 1.11 8.09 2.4 11.54 3.92 3.36 1.47 6.37 3.13 9.11 5v.04c2.6 1.79 4.96 3.77 6.93 5.91 2.06 2.2 3.84 4.54 5.25 7 1.47 2.58 2.63 5.3 3.53 8.14.91 2.89 1.53 5.86 1.81 8.87.17 2.08.11 3.93-.22 5.53-.32 1.36-.85 2.61-1.59 3.69l-.07.12c-.83 1.25-1.93 2.38-3.23 3.4-1.32 1.09-2.96 2.02-4.91 2.85-1.24.54-2.65 1.01-4.19 1.38-1.61.4-3.49.73-5.71.99l-.11.02c-2.27.3-4.9.51-8.02.68-2.66.14-6.08.22-10.12.22h-22.2l-18.48-60.79zm309.56 123.9c7.85 0 15.47-.59 22.81-1.74 7.35-1.12 14.3-2.83 20.72-5.09 6.65-2.34 12.74-5.28 18.32-8.79 5.64-3.56 10.7-7.69 15.14-12.38 4.53-4.76 8.45-10.04 11.71-15.84 3.19-5.71 5.82-12 7.79-18.86v-.04c2-6.87 3.25-14.15 3.83-21.85.49-7.55.32-15.66-.51-24.31-.53-5.43-1.32-11.04-2.46-16.8-1.06-5.81-2.52-11.91-4.22-18.24-1.69-6.37-3.8-12.82-6.24-19.36-2.46-6.46-5.25-12.96-8.31-19.49V3249c-3.08-6.4-6.53-12.87-10.47-19.37-3.87-6.46-8.07-12.77-12.63-18.95-4.61-6.3-9.62-12.28-15.07-17.88-5.41-5.55-11.28-10.78-17.53-15.66-6.21-4.88-12.92-9.32-20.15-13.29v-.04c-6.99-3.88-14.51-7.33-22.54-10.32-8.12-3.03-16.66-5.31-25.6-6.82-8.87-1.49-18.19-2.26-27.81-2.26-7.92 0-15.54.59-22.87 1.74-7.34 1.14-14.28 2.84-20.78 5.1-6.6 2.32-12.66 5.27-18.19 8.78-5.64 3.52-10.69 7.68-15.19 12.35-4.54 4.71-8.43 10.02-11.74 15.87-3.18 5.75-5.8 12.02-7.73 18.84-2.04 6.82-3.29 14.11-3.88 21.84-.5 7.6-.32 15.73.48 24.38.5 5.44 1.36 11.07 2.5 16.88 1.08 5.59 2.49 11.65 4.27 18.15 1.69 6.27 3.75 12.73 6.25 19.34 2.44 6.56 5.17 13.06 8.25 19.51l.05.09c3.07 6.47 6.59 12.93 10.48 19.35 3.76 6.29 7.96 12.59 12.63 18.9 4.6 6.32 9.6 12.29 15.07 17.9 5.41 5.56 11.27 10.78 17.53 15.65 6.25 4.94 13.02 9.4 20.15 13.35 7.1 3.94 14.62 7.4 22.51 10.38 8.09 3.02 16.57 5.28 25.5 6.76 8.91 1.5 18.26 2.25 27.93 2.25zm-7.17-58.35c-4.83 0-9.4-.4-13.64-1.19-4.34-.79-8.49-1.98-12.42-3.53-4.04-1.65-8.08-3.61-12-5.92-3.81-2.17-7.45-4.72-11.03-7.56-3.59-2.92-7.06-6.06-10.3-9.46-3.32-3.44-6.43-7.08-9.34-10.93-2.94-3.99-5.73-8.1-8.31-12.31-2.49-4.15-4.88-8.54-7.11-13.2-2.21-4.53-4.16-9.17-5.97-13.9-1.7-4.63-3.3-9.43-4.61-14.34v-.06c-1.4-4.97-2.56-9.78-3.47-14.43-.91-4.88-1.6-9.59-2.04-14.13-.4-4.4-.51-8.57-.34-12.47.21-3.69.73-7.12 1.54-10.31v-.05c.74-3.04 1.75-5.85 2.98-8.39 1.23-2.46 2.64-4.64 4.34-6.55l.06-.07c1.6-1.9 3.49-3.57 5.58-4.98 2.15-1.52 4.62-2.77 7.3-3.75 2.88-1.06 5.97-1.88 9.08-2.38 3.31-.53 6.9-.8 10.83-.8 4.76 0 9.33.4 13.53 1.16 4.32.8 8.54 2 12.52 3.59 3.97 1.57 7.97 3.54 11.94 5.87 3.93 2.3 7.63 4.83 11.1 7.59 3.58 2.91 6.99 6.08 10.24 9.46 3.29 3.45 6.43 7.08 9.33 10.93 2.96 3.99 5.74 8.08 8.3 12.3 2.51 4.14 4.91 8.56 7.13 13.21 2.2 4.52 4.2 9.14 5.96 13.84 1.78 4.74 3.36 9.55 4.66 14.39 1.39 4.81 2.51 9.65 3.48 14.54.91 4.84 1.58 9.56 2.04 14.07.87 8.8.51 16.47-1.02 22.91-1.48 5.9-3.92 10.84-7.47 14.72l-.04.04c-3.48 3.96-7.86 6.93-13.08 8.92-5.52 2.11-12.12 3.17-19.75 3.17zm275.72 53.19h60.27c-2.3-36.22-7.24-78.62-7.24-113.94-1.09-16.62-2.23-31.69-3.31-45.13l6.42 11.78c9.06 16.41 18.5 32.9 28.35 49.44 13.48 28.31 41.76 69.23 59.06 97.85h73.79L4303.4 3149.17h-63.85l6.99 101.58c1.17 15.16 2.35 30.01 3.61 44.54-6.91-14.87-14.64-30.94-23.22-48.19-3.06-3.1-42.55-85.06-49.04-97.93h-62.53l-11.22 277.49h66.81c.73-34.11 2.33-68.95 2.33-102.94.33-19.7.52-37.62.57-53.72v-.64l.7 1.62c6.91 15.25 15.07 32.26 24.39 51.01 17.48 34.95 35.26 69.77 52.91 104.67h5.58zm231.97-219.53h122.21l-17.48-57.96h-188.61l84.38 277.49h181.67l-17.82-57.95h-115.09l-14.92-48.85h98.84l-17.53-57.94h-98.87l-16.78-54.79zm246.96 100.43h5.93c4.78 0 8.87.06 12.01.17 3.41.12 6.95.34 10.56.66 3.29.29 6.34.66 9.1 1.14 2.8.48 5.42 1.07 7.92 1.77l.23.05c5.58 1.44 10.6 3.38 15.04 5.75 4.35 2.34 8.25 5.11 11.58 8.34 3.1 2.96 5.54 6.39 7.29 10.26 1.82 3.96 3 8.41 3.48 13.33.23 2.3.17 4.41-.16 6.36-.32 1.78-.8 3.42-1.61 4.91v.07c-.58 1.11-1.42 2.13-2.56 3-1.37 1.08-3.14 2.02-5.23 2.77-1.08.36-2.39.71-3.92.99-1.8.34-3.72.63-5.87.86-2.34.25-4.89.43-7.63.55v0c-2.48.09-5.73.17-9.73.17h-27.82l-18.61-61.15zm-54.94-158.39h-59.57l84.36 277.49h76.92c5.23 0 10.57-.12 15.98-.35 5.07-.21 9.62-.52 13.8-.92 4.19-.4 8.16-.94 11.83-1.6 4.03-.75 7.6-1.6 10.81-2.57 9.1-2.71 17.01-6.24 23.61-10.6 6.87-4.58 12.4-10.02 16.54-16.35l.06-.04c4.03-6.19 6.9-12.97 8.49-20.3 1.59-7.17 2.03-14.8 1.23-22.89-.56-5.73-1.46-11.25-2.78-16.54-1.35-5.42-3.06-10.6-5.12-15.54-2.11-5.11-4.66-9.97-7.62-14.54-2.95-4.54-6.43-8.86-10.36-13.02v-.03c-3.81-4.04-8.13-7.81-12.85-11.3h-.07c-4.79-3.54-9.9-6.74-15.29-9.59-5.57-2.94-11.62-5.57-18.09-7.87-3.3-1.14-6.68-2.2-10.26-3.2l48.83-110.24h-72.44l-42.14 100.44h-18.68l-30.44-100.44h-6.75zm-1057.17 0h-59.56l84.35 277.49h71.7c12.5 0 23.61-.58 33.27-1.71 9.96-1.18 18.39-2.96 25.4-5.35l.05-.04c8.46-2.93 15.7-6.63 21.6-11.07 6.26-4.65 11.15-10.15 14.81-16.51 3.47-6.14 5.92-12.75 7.23-19.79 1.29-6.92 1.6-14.3.79-22.14-.69-7.49-2.1-14.61-4.26-21.38-2.12-6.87-4.95-13.39-8.48-19.54-3.6-6.24-7.8-12.01-12.59-17.3-4.77-5.34-10.23-10.25-16.27-14.71-5.97-4.38-12.56-8.31-19.73-11.7-7.1-3.38-14.75-6.25-23-8.67h-.05c-8.24-2.39-17-4.17-26.22-5.33-9.39-1.21-19.13-1.81-29.15-1.81-5 0-10.06.19-15.18.52-2.33.17-4.66.36-7.01.6l-31-101.56h-6.7v0" class="color15182c svgShape"/><path fill="none" stroke="#f3f169" stroke-miterlimit="22.926" stroke-width="1.872" d="M 6000.94,0.941406 H 0.9375 V 6000.94 H 6000.94 Z" class="colorStrokefff svgStroke"/></g></svg></svg>