<?xml version="1.0" encoding="iso-8859-1"?>
<!-- Generator: Adobe Illustrator 22.1.0, SVG Export Plug-In . SVG Version: 6.00 Build 0)  -->
<svg version="1.1" id="Layer_1" xmlns="http://www.w3.org/2000/svg" xmlns:xlink="http://www.w3.org/1999/xlink" x="0px" y="0px"
	 viewBox="0 0 28 28" style="enable-background:new 0 0 28 28;" xml:space="preserve">
<g id="mirror-reflection_1_">
	<path d="M6,0v5.051C6.165,5.027,6.329,5,6.5,5C6.671,5,6.836,5.027,7,5.051V1h20v27h1V0H6z"/>
	<rect x="16" y="22" style="opacity:0.1;" width="1" height="6"/>
	<path style="opacity:0.1;" d="M7,1v4.051c1.691,0.245,3,1.691,3,3.449c0,0.979-0.407,1.864-1.059,2.5H11V5h4v1.512
		C15.419,6.195,15.935,6,16.5,6C17.881,6,19,7.119,19,8.5S17.881,11,16.5,11c-0.565,0-1.081-0.195-1.5-0.512V12h7V6h2v8h-4v14h7V1H7
		z"/>
	<polygon style="opacity:0.1;" points="12,15 12,23 11,23 11,28 13,28 13,15 	"/>
	<path style="opacity:0.5;" d="M16.5,11c1.381,0,2.5-1.119,2.5-2.5S17.881,6,16.5,6c-0.565,0-1.081,0.195-1.5,0.512v3.977
		C15.419,10.805,15.935,11,16.5,11z"/>
	<polygon style="opacity:0.5;" points="24,14 24,6 22,6 22,12 15,12 15,15 13,15 13,28 16,28 16,22 17,22 17,28 20,28 20,14 	"/>
	<rect x="11" y="15" style="opacity:0.5;" width="1" height="8"/>
	<circle cx="6.5" cy="8.5" r="2.5"/>
	<polygon points="10,14 12,14 13,14 14,14 14,6 12,6 12,12 10,12 0,12 0,23 2,23 2,14 3,14 3,28 6,28 6,22 7,22 7,28 10,28 10,23 	
		"/>
</g>
</svg>
